<?xml version="1.0" encoding="UTF-8" standalone="no"?>
<!DOCTYPE svg PUBLIC "-//W3C//DTD SVG 1.1//EN" "http://www.w3.org/Graphics/SVG/1.1/DTD/svg11.dtd">
<svg width="456" height="456" viewBox="0 0 456 456" version="1.1" xmlns="http://www.w3.org/2000/svg" xmlns:xlink="http://www.w3.org/1999/xlink" xml:space="preserve" xmlns:serif="http://www.serif.com/" style="fill-rule:evenodd;clip-rule:evenodd;stroke-linejoin:round;stroke-miterlimit:2;">
  <defs>
    <style>
      .cls-1 {
        fill: #fff;
        fill-rule: evenodd;
      }
      .cls-2 {
        fill: #010101;
      }
    </style>
  </defs>
  <rect class="cls-2" width="456" height="456"/>
  <path class="cls-1" d="M240,300.27c-9.41,0-17.39-3.26-23.93-9.8-6.57-6.57-9.85-14.49-9.85-23.83v-54.47l-2.67-2.87v89.23h-21.24v-111.9l-9.98-10.69-49.47-52.88,47.47,48.42,56.53,57.65,57.68,56.53,48.4,47.47-52.88-49.47-7.75-7.23c-1.54,5.26-4.39,9.95-8.57,14.08-6.59,6.51-14.52,9.77-23.75,9.77h0ZM123.05,122.87l52.88,49.47,6.39,5.98v-20.85h21.24v40.68l2.67,2.51v-11.23c0-9.31,3.31-17.29,9.93-23.85,6.59-6.59,14.54-9.85,23.85-9.85s17.34,3.28,23.88,9.93c6.51,6.59,9.8,14.54,9.8,23.8v16.08h-22v-16.47c0-3.39-1.23-6.31-3.62-8.69-2.41-2.41-5.31-3.59-8.75-3.59s-6.23,1.18-8.62,3.59c-2.39,2.39-3.56,5.31-3.56,8.67v31.16l4.49,4.21,21.11,22.57h20.95v19.62c0,.92-.03,1.8-.1,2.69l10.08,10.77,49.47,52.88-47.47-48.4-56.53-57.68-57.65-56.53-48.42-47.47Zm104.07,111.28v32.24c0,3.39,1.18,6.28,3.56,8.64,2.39,2.36,5.28,3.56,8.62,3.56s6.33-1.21,8.75-3.56c2.39-2.39,3.62-5.26,3.62-8.67v-9.26l-24.54-22.95Z"/>
</svg>