<?xml version="1.0" encoding="UTF-8" standalone="no"?>
<!DOCTYPE svg PUBLIC "-//W3C//DTD SVG 1.1//EN" "http://www.w3.org/Graphics/SVG/1.1/DTD/svg11.dtd">
<svg width="456" height="456" viewBox="0 0 456 456" version="1.1" xmlns="http://www.w3.org/2000/svg" xmlns:xlink="http://www.w3.org/1999/xlink" xml:space="preserve" xmlns:serif="http://www.serif.com/" style="fill-rule:evenodd;clip-rule:evenodd;stroke-linejoin:round;stroke-miterlimit:2;">
  <defs>
    <style>
      .cls-1 {
        fill: #fff;
        fill-rule: evenodd;
      }
    </style>
  </defs>
  <path class="cls-1" d="M237.6,359.86c-19.09,0-35.27-6.61-48.54-19.87-13.32-13.32-19.98-29.39-19.98-48.33v-110.5l-5.41-5.83v180.99h-43.08V129.33l-20.24-21.69L0,.36,96.3,98.59l114.66,116.95,117,114.66,98.17,96.3-107.27-100.36-15.71-14.67c-3.12,10.67-8.9,20.19-17.38,28.56-13.37,13.21-29.45,19.82-48.17,19.82h0ZM.36,0L107.64,100.36l12.95,12.12v-42.3h43.08v82.51l5.41,5.1v-22.79c0-18.89,6.71-35.06,20.13-48.38,13.37-13.37,29.5-19.98,48.38-19.98s35.17,6.66,48.44,20.13c13.21,13.37,19.87,29.5,19.87,48.28v32.62h-44.64v-33.4c0-6.87-2.5-12.8-7.34-17.64-4.89-4.89-10.77-7.28-17.74-7.28s-12.64,2.39-17.48,7.28c-4.84,4.84-7.23,10.77-7.23,17.58v63.21l9.1,8.53,42.82,45.78h42.5v39.8c0,1.87-.05,3.64-.21,5.46l20.45,21.85,100.36,107.28-96.3-98.17-114.66-117L98.59,96.3,.36,0ZM211.48,225.74v65.4c0,6.87,2.39,12.75,7.23,17.53,4.84,4.79,10.72,7.23,17.48,7.23s12.85-2.45,17.74-7.23c4.84-4.84,7.34-10.67,7.34-17.58v-18.78l-49.79-46.56Z"/>
</svg>